# xmcd
# 
# Track frame offsets:
#     150
#     18973
#     42092
#     66078
#     94983
#     130573
#     145133
#     185101
#     211632
#     233839
#     248588
#     268892
#     282495
#     306317
# 
# Disc length: 4291
# 
# Revision: 14
# Processed by: cddbd v1.5.2PL0 Copyright (c) Steve Scherf et al.
# Submitted via: fre:ac v1.0.31
# 
DISCID=c810c10e
DTITLE=Van Morrison - The Best Of Van Morrison Volume 3 Disc 1
DYEAR=2007
DGENRE=Rock/Pop
TTITLE0=Cry For Home (with Tom Jones)(Previously Unreleased)
TTITLE1=Too Long In Exile
TTITLE2=Gloria (with John Lee Hooker)
TTITLE3=Help Me (with Junior Wells)(LIVE)
TTITLE4=Lonely Avenue, 4 O'Clock In The Morning (with Jimmy Witherspoon)(Live)
TTITLE5=Days Like This
TTITLE6=Ancient Highway
TTITLE7=Raincheck
TTITLE8=Moondance (with Georgie Fame)
TTITLE9=Centerpiece (with Georgie Fame and Annie Ross)(LIVE)
TTITLE10=That's Life (LIVE)
TTITLE11=Benediction (Georgie Fame and Ben Sidran)(Re-mix)
TTITLE12=The Healing Game (Remix)
TTITLE13=I Don't Want To Go On Without You (with James Hunter)
EXTD=YEAR: 2007
EXTT0=101
EXTT1=102
EXTT2=103
EXTT3=104
EXTT4=105
EXTT5=106
EXTT6=107
EXTT7=108
EXTT8=109
EXTT9=110
EXTT10=111
EXTT11=112
EXTT12=113
EXTT13=114
PLAYORDER=
